<svg width="1252" height="296" viewBox="0 0 1252 296" fill="none" xmlns="http://www.w3.org/2000/svg">
<path d="M337.655 49.1467V81.0625H283.762V229.391H245.878V81.0625H191.741V49.1467H337.655Z" fill="#E2E8F0"/>
<path d="M452.406 190.261C451.51 198.168 447.396 206.198 440.064 214.351C428.658 227.312 412.69 233.793 392.159 233.793C375.213 233.793 360.263 228.332 347.309 217.408C334.355 206.484 327.879 188.712 327.879 164.092C327.879 141.022 333.704 123.332 345.354 111.022C357.086 98.7119 372.28 92.5571 390.937 92.5571C402.017 92.5571 411.997 94.6359 420.877 98.7935C429.758 102.951 437.09 109.514 442.874 118.481C448.088 126.389 451.47 135.56 453.017 145.995C453.914 152.109 454.28 160.913 454.117 172.408H362.952C363.441 185.777 367.636 195.152 375.539 200.533C380.346 203.875 386.13 205.546 392.892 205.546C400.062 205.546 405.887 203.508 410.368 199.432C412.812 197.231 414.971 194.174 416.845 190.261H452.406ZM417.944 149.418C417.374 140.207 414.563 133.236 409.512 128.508C404.542 123.698 398.351 121.293 390.937 121.293C382.871 121.293 376.598 123.821 372.117 128.875C367.718 133.929 364.948 140.777 363.807 149.418H417.944Z" fill="#E2E8F0"/>
<path d="M478.436 49.1467H513.265V229.391H478.436V49.1467Z" fill="#E2E8F0"/>
<path d="M548.094 49.1467H582.922V229.391H548.094V49.1467Z" fill="#E2E8F0"/>
<path d="M731.036 190.261C730.14 198.168 726.026 206.198 718.693 214.351C707.287 227.312 691.319 233.793 670.788 233.793C653.843 233.793 638.893 228.332 625.939 217.408C612.985 206.484 606.508 188.712 606.508 164.092C606.508 141.022 612.333 123.332 623.984 111.022C635.715 98.7119 650.91 92.5571 669.566 92.5571C680.646 92.5571 690.627 94.6359 699.507 98.7935C708.387 102.951 715.72 109.514 721.504 118.481C726.718 126.389 730.099 135.56 731.647 145.995C732.543 152.109 732.91 160.913 732.747 172.408H641.581C642.07 185.777 646.266 195.152 654.168 200.533C658.975 203.875 664.76 205.546 671.522 205.546C678.691 205.546 684.516 203.508 688.997 199.432C691.441 197.231 693.6 194.174 695.474 190.261H731.036ZM696.574 149.418C696.004 140.207 693.193 133.236 688.142 128.508C683.172 123.698 676.98 121.293 669.566 121.293C661.501 121.293 655.228 123.821 650.747 128.875C646.347 133.929 643.577 140.777 642.437 149.418H696.574Z" fill="#E2E8F0"/>
<path d="M819.024 121.905C807.211 121.905 799.105 126.918 794.705 136.946C792.424 142.245 791.284 149.011 791.284 157.245V229.391H756.577V96.3478H790.184V115.791C794.665 108.943 798.901 104.011 802.893 100.995C810.063 95.6141 819.146 92.9239 830.145 92.9239C843.914 92.9239 855.157 96.5516 863.874 103.807C872.673 110.981 877.072 122.924 877.072 139.636V229.391H841.388V148.318C841.388 141.307 840.451 135.927 838.577 132.177C835.155 125.329 828.638 121.905 819.024 121.905Z" fill="#E2E8F0"/>
<path fill-rule="evenodd" clip-rule="evenodd" d="M0.00280762 57.2175C0.00280762 52.0308 4.20479 47.8262 9.38822 47.8262H140.784C145.967 47.8262 150.169 52.0308 150.169 57.2175V215.011C150.169 218.448 148.293 221.61 145.278 223.256L125.465 234.07C122.663 235.599 119.278 235.599 116.476 234.07L98.0283 224.001L79.5804 234.07C76.779 235.599 73.3932 235.599 70.5919 234.07L52.144 224.001L33.6961 234.07C30.8948 235.599 27.509 235.599 24.7077 234.07L4.894 223.256C1.87883 221.61 0.00280762 218.448 0.00280762 215.011V57.2175ZM12.5167 60.3479V213.153L29.2019 222.26L47.6498 212.191C50.4511 210.662 53.8369 210.662 56.6382 212.191L75.0861 222.26L93.534 212.191C96.3354 210.662 99.7212 210.662 102.522 212.191L120.97 222.26L137.656 213.153V60.3479H12.5167Z" fill="#E2E8F0"/>
<path fill-rule="evenodd" clip-rule="evenodd" d="M81.3431 97.9131H6.25977V85.3914H81.3431V97.9131ZM137.656 141.739H62.5723V129.217H137.656V141.739ZM137.656 173.044H62.5723V160.522H137.656V173.044Z" fill="#E2E8F0"/>
<path d="M912.875 93.2187V224.781H905.062V93.2187H912.875ZM992.299 199H967.611V119H993.393C1001.15 119 1007.79 120.602 1013.31 123.805C1018.84 126.982 1023.07 131.552 1026.01 137.516C1028.95 143.453 1030.42 150.562 1030.42 158.844C1030.42 167.177 1028.94 174.352 1025.97 180.367C1023 186.357 1018.68 190.966 1013 194.195C1007.32 197.398 1000.42 199 992.299 199ZM977.299 190.406H991.674C998.288 190.406 1003.77 189.13 1008.12 186.578C1012.47 184.026 1015.71 180.393 1017.85 175.68C1019.98 170.966 1021.05 165.354 1021.05 158.844C1021.05 152.385 1019.99 146.826 1017.88 142.164C1015.78 137.477 1012.62 133.883 1008.43 131.383C1004.24 128.857 999.018 127.594 992.768 127.594H977.299V190.406ZM1069.8 200.25C1064.38 200.25 1059.63 198.961 1055.54 196.383C1051.48 193.805 1048.3 190.198 1046.01 185.562C1043.74 180.927 1042.61 175.51 1042.61 169.312C1042.61 163.062 1043.74 157.607 1046.01 152.945C1048.3 148.284 1051.48 144.664 1055.54 142.086C1059.63 139.508 1064.38 138.219 1069.8 138.219C1075.22 138.219 1079.96 139.508 1084.02 142.086C1088.11 144.664 1091.28 148.284 1093.55 152.945C1095.84 157.607 1096.99 163.062 1096.99 169.312C1096.99 175.51 1095.84 180.927 1093.55 185.562C1091.28 190.198 1088.11 193.805 1084.02 196.383C1079.96 198.961 1075.22 200.25 1069.8 200.25ZM1069.8 191.969C1073.91 191.969 1077.3 190.914 1079.96 188.805C1082.61 186.695 1084.58 183.922 1085.85 180.484C1087.13 177.047 1087.77 173.323 1087.77 169.312C1087.77 165.302 1087.13 161.565 1085.85 158.102C1084.58 154.638 1082.61 151.839 1079.96 149.703C1077.3 147.568 1073.91 146.5 1069.8 146.5C1065.68 146.5 1062.3 147.568 1059.64 149.703C1056.99 151.839 1055.02 154.638 1053.74 158.102C1052.47 161.565 1051.83 165.302 1051.83 169.312C1051.83 173.323 1052.47 177.047 1053.74 180.484C1055.02 183.922 1056.99 186.695 1059.64 188.805C1062.3 190.914 1065.68 191.969 1069.8 191.969ZM1135.43 200.25C1129.81 200.25 1124.96 198.922 1120.9 196.266C1116.84 193.609 1113.71 189.951 1111.53 185.289C1109.34 180.628 1108.25 175.302 1108.25 169.312C1108.25 163.219 1109.37 157.841 1111.61 153.18C1113.87 148.492 1117.02 144.833 1121.06 142.203C1125.12 139.547 1129.86 138.219 1135.28 138.219C1139.5 138.219 1143.3 139 1146.68 140.562C1150.07 142.125 1152.84 144.312 1155 147.125C1157.17 149.937 1158.51 153.219 1159.03 156.969H1149.81C1149.11 154.234 1147.54 151.812 1145.12 149.703C1142.73 147.568 1139.5 146.5 1135.43 146.5C1131.84 146.5 1128.69 147.437 1125.98 149.312C1123.3 151.161 1121.2 153.779 1119.69 157.164C1118.21 160.523 1117.46 164.469 1117.46 169C1117.46 173.635 1118.19 177.672 1119.65 181.109C1121.14 184.547 1123.22 187.216 1125.9 189.117C1128.61 191.018 1131.79 191.969 1135.43 191.969C1137.83 191.969 1140 191.552 1141.96 190.719C1143.91 189.885 1145.56 188.688 1146.92 187.125C1148.27 185.562 1149.24 183.687 1149.81 181.5H1159.03C1158.51 185.042 1157.22 188.232 1155.16 191.07C1153.13 193.883 1150.43 196.122 1147.07 197.789C1143.74 199.43 1139.86 200.25 1135.43 200.25ZM1215 152.437L1206.72 154.781C1206.2 153.401 1205.43 152.06 1204.42 150.758C1203.43 149.43 1202.07 148.336 1200.36 147.477C1198.64 146.617 1196.44 146.187 1193.75 146.187C1190.08 146.187 1187.02 147.034 1184.57 148.727C1182.15 150.393 1180.94 152.516 1180.94 155.094C1180.94 157.385 1181.77 159.195 1183.44 160.523C1185.11 161.852 1187.71 162.958 1191.25 163.844L1200.16 166.031C1205.52 167.333 1209.52 169.326 1212.15 172.008C1214.78 174.664 1216.1 178.089 1216.1 182.281C1216.1 185.719 1215.11 188.792 1213.13 191.5C1211.18 194.208 1208.44 196.344 1204.93 197.906C1201.41 199.469 1197.32 200.25 1192.66 200.25C1186.54 200.25 1181.48 198.922 1177.46 196.266C1173.45 193.609 1170.92 189.729 1169.85 184.625L1178.6 182.437C1179.43 185.667 1181.01 188.089 1183.32 189.703C1185.67 191.318 1188.73 192.125 1192.5 192.125C1196.8 192.125 1200.21 191.214 1202.74 189.391C1205.29 187.542 1206.57 185.328 1206.57 182.75C1206.57 180.667 1205.84 178.922 1204.38 177.516C1202.92 176.083 1200.68 175.016 1197.66 174.312L1187.66 171.969C1182.17 170.667 1178.13 168.648 1175.55 165.914C1173 163.154 1171.72 159.703 1171.72 155.562C1171.72 152.177 1172.67 149.182 1174.57 146.578C1176.5 143.974 1179.12 141.93 1182.43 140.445C1185.76 138.961 1189.54 138.219 1193.75 138.219C1199.69 138.219 1204.35 139.521 1207.74 142.125C1211.15 144.729 1213.57 148.167 1215 152.437Z" fill="#E2E8F0"/>
</svg>
